<svg xmlns="http://www.w3.org/2000/svg" viewBox="0 0 800 600">
  <g fill="none" stroke-linecap="round" stroke-linejoin="round">

    <!-- Central elevation cluster -->
    <path d="M400 300 C500 220,650 230,700 300 C750 370,720 450,650 470 C580 490,480 480,400 440 C320 400,250 420,210 380 C170 340,185 270,240 250 C295 230,310 265,400 300Z" stroke="#6B8D6F" stroke-width="1.6"/>
    <path d="M400 306 C492 232,634 242,681 306 C728 370,698 442,630 459 C562 476,470 467,400 431 C330 395,267 414,230 377 C193 340,210 275,263 257 C316 239,326 270,400 306Z" stroke="#C7A158" stroke-width="1.4"/>
    <path d="M400 312 C484 244,618 254,662 312 C706 370,677 434,612 449 C547 464,461 456,400 422 C339 388,284 406,250 373 C216 340,235 281,285 264 C335 247,344 272,400 312Z" stroke="#6B8D6F" stroke-width="1.2"/>
    <path d="M400 318 C476 256,602 266,643 318 C684 370,656 426,594 439 C532 452,452 445,400 413 C348 381,301 398,270 369 C239 340,260 287,307 271 C354 255,362 274,400 318Z" stroke="#C7A158" stroke-width="1.0"/>
    <path d="M400 324 C468 268,586 278,624 324 C662 370,635 418,576 429 C517 440,443 434,400 404 C357 374,318 390,290 365 C262 340,285 293,329 278 C373 263,380 276,400 324Z" stroke="#6B8D6F" stroke-width="0.85"/>
    <path d="M400 330 C460 280,570 290,605 330 C640 370,614 410,558 419 C502 428,434 423,400 395 C366 367,335 382,310 361 C285 340,310 299,351 285 C392 271,398 278,400 330Z" stroke="#C7A158" stroke-width="0.7"/>
    <path d="M400 336 C452 292,554 302,586 336 C618 370,593 402,540 409 C487 416,425 412,400 386 C375 360,352 374,330 357 C308 340,335 305,373 292 C411 279,416 280,400 336Z" stroke="#6B8D6F" stroke-width="0.55"/>

    <!-- Left cluster -->
    <path d="M150 150 C210 100,295 110,325 150 C355 190,335 255,282 270 C229 285,168 268,138 238 C108 208,118 172,150 150Z" stroke="#6B8D6F" stroke-width="1.4"/>
    <path d="M154 155 C208 108,286 118,314 155 C342 192,322 249,273 263 C224 277,170 261,142 233 C114 205,124 176,154 155Z" stroke="#C7A158" stroke-width="1.1"/>
    <path d="M158 160 C206 116,277 126,303 160 C329 194,310 243,265 256 C220 269,172 254,146 228 C120 202,130 180,158 160Z" stroke="#6B8D6F" stroke-width="0.9"/>
    <path d="M162 165 C204 124,268 134,292 165 C316 196,298 237,257 249 C216 261,174 247,150 223 C126 199,136 184,162 165Z" stroke="#C7A158" stroke-width="0.7"/>
    <path d="M166 170 C202 132,259 142,281 170 C303 198,286 231,249 242 C212 253,176 240,154 218 C132 196,142 188,166 170Z" stroke="#6B8D6F" stroke-width="0.55"/>

    <!-- Right cluster -->
    <path d="M655 435 C715 392,778 403,797 440 C816 477,795 530,754 542 C713 554,662 538,642 508 C622 478,627 460,655 435Z" stroke="#6B8D6F" stroke-width="1.3"/>
    <path d="M659 440 C712 399,771 409,789 442 C807 475,786 524,748 535 C710 546,663 531,644 503 C625 475,630 464,659 440Z" stroke="#C7A158" stroke-width="1.05"/>
    <path d="M663 445 C709 406,764 415,781 444 C798 473,777 518,742 528 C707 538,664 524,646 498 C628 472,633 468,663 445Z" stroke="#6B8D6F" stroke-width="0.8"/>
    <path d="M667 450 C706 413,757 421,773 446 C789 471,768 512,736 521 C704 530,665 517,648 493 C631 469,636 472,667 450Z" stroke="#C7A158" stroke-width="0.6"/>

    <!-- Top-right small peak -->
    <path d="M660 80 C700 54,748 62,762 92 C776 122,756 162,720 169 C684 176,648 160,637 132 C626 104,634 94,660 80Z" stroke="#C7A158" stroke-width="1.2"/>
    <path d="M664 85 C698 62,742 70,755 95 C768 120,749 156,716 162 C683 168,651 153,641 127 C631 101,638 98,664 85Z" stroke="#6B8D6F" stroke-width="0.95"/>
    <path d="M668 90 C696 70,736 78,748 98 C760 118,742 150,712 155 C682 160,654 146,645 122 C636 98,642 102,668 90Z" stroke="#C7A158" stroke-width="0.7"/>
    <path d="M672 95 C694 78,730 86,741 101 C752 116,735 144,708 148 C681 152,657 139,649 117 C641 95,646 106,672 95Z" stroke="#6B8D6F" stroke-width="0.5"/>

    <!-- Bottom-left small cluster -->
    <path d="M80 470 C125 440,180 448,198 472 C216 496,200 535,165 542 C130 549,88 533,72 508 C56 483,58 488,80 470Z" stroke="#6B8D6F" stroke-width="1.1"/>
    <path d="M84 475 C122 447,174 455,191 475 C208 495,192 530,160 536 C128 542,90 527,75 504 C60 481,62 492,84 475Z" stroke="#C7A158" stroke-width="0.85"/>
    <path d="M88 480 C119 454,168 462,184 478 C200 494,184 525,155 530 C126 535,92 521,78 500 C64 479,66 496,88 480Z" stroke="#6B8D6F" stroke-width="0.65"/>

  </g>
</svg>
